<mxfile host="65bd71144e">
    <diagram id="WLVdKekDvomiXxl9we6z" name="ページ1">
        <mxGraphModel dx="800" dy="608" grid="1" gridSize="10" guides="1" tooltips="1" connect="1" arrows="1" fold="1" page="1" pageScale="1" pageWidth="827" pageHeight="1169" math="0" shadow="0">
            <root>
                <mxCell id="0"/>
                <mxCell id="1" parent="0"/>
                <mxCell id="62" value="&lt;b&gt;Google &lt;/b&gt;Cloud Platform" style="fillColor=#F6F6F6;strokeColor=none;shadow=0;gradientColor=none;fontSize=14;align=left;spacing=10;fontColor=#717171;9E9E9E;verticalAlign=top;spacingTop=-4;fontStyle=0;spacingLeft=40;html=1;whiteSpace=wrap;container=0;" vertex="1" parent="1">
                    <mxGeometry x="936" y="140" width="334" height="330" as="geometry"/>
                </mxCell>
                <mxCell id="72" style="edgeStyle=none;html=1;entryX=0;entryY=0.5;entryDx=0;entryDy=0;" edge="1" parent="1" source="66" target="59">
                    <mxGeometry relative="1" as="geometry"/>
                </mxCell>
                <mxCell id="100" value="CD" style="edgeLabel;html=1;align=center;verticalAlign=middle;resizable=0;points=[];" vertex="1" connectable="0" parent="72">
                    <mxGeometry x="-0.2166" relative="1" as="geometry">
                        <mxPoint as="offset"/>
                    </mxGeometry>
                </mxCell>
                <mxCell id="66" value="" style="verticalLabelPosition=bottom;html=1;verticalAlign=top;align=center;strokeColor=none;fillColor=#00BEF2;shape=mxgraph.azure.github_code;pointerEvents=1;" vertex="1" parent="1">
                    <mxGeometry x="820" y="290" width="50" height="50" as="geometry"/>
                </mxCell>
                <mxCell id="68" value="" style="sketch=0;pointerEvents=1;shadow=0;dashed=0;html=1;strokeColor=none;fillColor=#505050;labelPosition=center;verticalLabelPosition=bottom;verticalAlign=top;outlineConnect=0;align=center;shape=mxgraph.office.devices.laptop;" vertex="1" parent="1">
                    <mxGeometry x="670" y="298" width="58" height="34" as="geometry"/>
                </mxCell>
                <mxCell id="73" style="edgeStyle=none;html=1;" edge="1" parent="1" source="59" target="60">
                    <mxGeometry relative="1" as="geometry"/>
                </mxCell>
                <mxCell id="83" value="&lt;span style=&quot;color: rgb(0, 0, 0);&quot;&gt;デプロイ&lt;/span&gt;" style="edgeLabel;html=1;align=center;verticalAlign=middle;resizable=0;points=[];" vertex="1" connectable="0" parent="73">
                    <mxGeometry x="-0.0305" relative="1" as="geometry">
                        <mxPoint as="offset"/>
                    </mxGeometry>
                </mxCell>
                <mxCell id="81" style="edgeStyle=none;html=1;entryX=0;entryY=0.5;entryDx=0;entryDy=0;" edge="1" parent="1" source="59" target="79">
                    <mxGeometry relative="1" as="geometry"/>
                </mxCell>
                <mxCell id="82" value="デプロイ" style="edgeLabel;html=1;align=center;verticalAlign=middle;resizable=0;points=[];" vertex="1" connectable="0" parent="81">
                    <mxGeometry x="0.0286" relative="1" as="geometry">
                        <mxPoint x="-1" as="offset"/>
                    </mxGeometry>
                </mxCell>
                <mxCell id="59" value="Container&#xa;Registry" style="sketch=0;html=1;verticalAlign=top;labelPosition=center;verticalLabelPosition=bottom;align=center;spacingTop=-6;fontSize=11;fontStyle=1;fontColor=#999999;shape=image;aspect=fixed;imageAspect=0;image=data:image/svg+xml,PHN2ZyB4bWxucz0iaHR0cDovL3d3dy53My5vcmcvMjAwMC9zdmciIHhtbG5zOnY9Imh0dHBzOi8vdmVjdGEuaW8vbmFubyIgd2lkdGg9IjM3Ny4xNTkzMDIxNjAyNjMwNSIgaGVpZ2h0PSIzMzYuMTYyNDk5MDAzMzEwOCIgdmlld0JveD0iLTAuMDU4MDAwMDA1NzgxNjUwNTQgMC4xMTI5OTk5OTgwMzMwNDY3MiA5OS43OTAwMDA5MTU1MjczNCA4OC45NDMwMDA3OTM0NTcwMyI+JiN4YTs8c3R5bGUgdHlwZT0idGV4dC9jc3MiPiYjeGE7CS5zdDB7ZmlsbDojNjY5ZGY2O30mI3hhOwkuc3Qxe2ZpbGw6I2FlY2JmYTt9JiN4YTsJLnN0MntmaWxsOiM0Mjg1ZjQ7fSYjeGE7PC9zdHlsZT4mI3hhOwk8cGF0aCBjbGFzcz0ic3QwIiBkPSJNNTMuMjQzIDYyLjA5VjQ3LjA5NGwxMy4yMDEgOC40MTZ2MTUuMDM4em0tMzMuMDIxIDBWNDcuMDk0bDEzLjIwMSA4LjQxNnYxNS4wMzh6bTE2LjUxMS0zMi4yODVWMTQuODFsMTMuMjAxIDguNDE2djE1LjAzOHptNjIuOTk5IDMzLjk2VjI1LjQwM2wtOS41NjItMS44ODR2NDIuMTMxem0tOTkuNzg4IDBWMjUuNDAzbDkuNTYyLTEuODg0djQyLjEzMXoiLz4mI3hhOwk8cGF0aCBjbGFzcz0ic3QxIiBkPSJNNTMuMTg1IDQ3LjA5NGwxMy4yNTgtOC4yODcgMTMuMDE2IDguMjM0LTEzLjAxNiA4LjQ2OXptLTMzLjAyMSAwbDEzLjI1OC04LjI4NyAxMy4wMTYgOC4yMzQtMTMuMDE2IDguNDY5ek0zNi42NzUgMTQuODFsMTMuMjU4LTguMjg3IDEzLjAxNiA4LjIzNC0xMy4wMTYgOC40Njl6bTYzLjA1NiA0OC45NTZ2MTIuMjE3TDc3LjAxIDg5LjA1NVY3Ny43NTJ6bTAtMzguMzYzVjEzLjE4Nkw3Ny4wMS4xMTN2MTEuMzAzek0tLjA1OCA2My43NjZ2MTIuMjE3bDIyLjcyMSAxMy4wNzNWNzcuNzUyem0wLTM4LjM2M1YxMy4xODZMMjIuNjYzLjExM3YxMS4zMDN6Ii8+JiN4YTsJPHBhdGggY2xhc3M9InN0MiIgZD0iTTY2LjQ0NCA3MC41NDdWNTUuNTFsMTMuMDE2LTguNDY5djE1LjR6bS0zMy4wMjEgMFY1NS41MWwxMy4wMTYtOC40Njl2MTUuNHptMTYuNTExLTMyLjI4NVYyMy4yMjVsMTMuMDE2LTguNDY5djE1LjR6bTQ5Ljc5OCAyNS41MDNsLTkuNTYyIDUuODh2LTMuOTk2em0wLTM4LjM2M2wtOS41NjItNS44OHYzLjk5NnpNLS4wNTggNjMuNzY2bDkuNTYyIDUuODh2LTMuOTk2em0wLTM4LjM2M2w5LjU2Mi01Ljg4djMuOTk2eiIvPiYjeGE7PC9zdmc+;" vertex="1" parent="1">
                    <mxGeometry x="969.9977215189873" y="294" width="42" height="42" as="geometry"/>
                </mxCell>
                <mxCell id="88" style="edgeStyle=orthogonalEdgeStyle;html=1;strokeColor=none;rounded=0;curved=0;" edge="1" parent="1" source="60">
                    <mxGeometry relative="1" as="geometry">
                        <mxPoint x="1341.3333333333335" y="280" as="targetPoint"/>
                    </mxGeometry>
                </mxCell>
                <mxCell id="89" style="edgeStyle=orthogonalEdgeStyle;html=1;rounded=0;curved=0;" edge="1" parent="1" source="60" target="103">
                    <mxGeometry relative="1" as="geometry">
                        <mxPoint x="1341" y="290" as="targetPoint"/>
                    </mxGeometry>
                </mxCell>
                <mxCell id="91" value="API連携" style="edgeLabel;html=1;align=center;verticalAlign=middle;resizable=0;points=[];" vertex="1" connectable="0" parent="89">
                    <mxGeometry x="0.0987" y="-1" relative="1" as="geometry">
                        <mxPoint as="offset"/>
                    </mxGeometry>
                </mxCell>
                <mxCell id="60" value="&lt;font style=&quot;color: rgb(153, 153, 153);&quot;&gt;Cloud Run&lt;/font&gt;&lt;div&gt;&lt;font style=&quot;color: rgb(153, 153, 153);&quot;&gt;（Job）&lt;/font&gt;&lt;/div&gt;" style="sketch=0;html=1;verticalAlign=top;labelPosition=center;verticalLabelPosition=bottom;align=center;spacingTop=-6;fontSize=11;fontStyle=1;fontColor=#999999;shape=image;aspect=fixed;imageAspect=0;image=data:image/svg+xml,PHN2ZyB4bWxucz0iaHR0cDovL3d3dy53My5vcmcvMjAwMC9zdmciIHhtbG5zOnY9Imh0dHBzOi8vdmVjdGEuaW8vbmFubyIgd2lkdGg9IjM2NS40NjQ5OTY3NzA0MjQ5MyIgaGVpZ2h0PSIzNzkuMjIyOTk0NDYzNTc3OTUiIHZpZXdCb3g9IjAgMCA5Ni42OTU5OTkxNDU1MDc4MSAxMDAuMzM1OTk4NTM1MTU2MjUiPiYjeGE7PHN0eWxlIHR5cGU9InRleHQvY3NzIj4mI3hhOwkuc3Qwe2ZpbGw6IzQyODVmNDt9JiN4YTsJLnN0MXtmaWxsOiNhZWNiZmE7fSYjeGE7PC9zdHlsZT4mI3hhOwk8cGF0aCBjbGFzcz0ic3QwIiBkPSJNMjkuNzk0IDEwMC4zMzZMNDYuOTIgNTAuMTY4aDQ5Ljc3NnpNMCA5OS42NzFsMTIuOTc2LTQ5LjUwMkgyOS4yMkwxNi44OTcgOTIuMDU0eiIvPiYjeGE7CTxwYXRoIGNsYXNzPSJzdDEiIGQ9Ik0yOS43OTQgMEw0Ni45MiA1MC4xNjhoNDkuNzc2ek0wIC42NjZsMTIuOTc2IDQ5LjUwMkgyOS4yMkwxNi44OTcgOC4yODN6Ii8+JiN4YTs8L3N2Zz4=;" vertex="1" parent="1">
                    <mxGeometry x="1130" y="210" width="34" height="42" as="geometry"/>
                </mxCell>
                <mxCell id="84" style="edgeStyle=none;html=1;" edge="1" parent="1" source="58" target="60">
                    <mxGeometry relative="1" as="geometry"/>
                </mxCell>
                <mxCell id="86" value="実行／1h" style="edgeLabel;html=1;align=center;verticalAlign=middle;resizable=0;points=[];" vertex="1" connectable="0" parent="84">
                    <mxGeometry x="-0.1389" y="-2" relative="1" as="geometry">
                        <mxPoint as="offset"/>
                    </mxGeometry>
                </mxCell>
                <mxCell id="58" value="Cloud&#xa;Scheduler" style="sketch=0;html=1;verticalAlign=top;labelPosition=center;verticalLabelPosition=bottom;align=center;spacingTop=-6;fontSize=11;fontStyle=1;fontColor=#999999;shape=image;aspect=fixed;imageAspect=0;image=data:image/svg+xml,PHN2ZyB4bWxucz0iaHR0cDovL3d3dy53My5vcmcvMjAwMC9zdmciIHhtbG5zOnY9Imh0dHBzOi8vdmVjdGEuaW8vbmFubyIgd2lkdGg9IjM2MC4zMDM3NjY4NjA4MzYzIiBoZWlnaHQ9IjM3OC4wNTExNTgwNzc0MDg4IiB2aWV3Qm94PSItMC4wMDAxNjI0MjExNDM2MTM3NTU3IC0wLjAwMDEwMDAwNTk0OTIwNzExNTkyIDk1LjMzMDI2MTIzMDQ2ODc1IDEwMC4wMjYxMDAxNTg2OTE0Ij4mI3hhOzxzdHlsZSB0eXBlPSJ0ZXh0L2NzcyI+JiN4YTsJLnN0MHtmaWxsOiM0Mjg1ZjQ7fSYjeGE7CS5zdDF7ZmlsbDojYWVjYmZhO30mI3hhOwkuc3Qye2ZpbGw6IzY2OWRmNjt9JiN4YTs8L3N0eWxlPiYjeGE7CTxwYXRoIGNsYXNzPSJzdDAiIGQ9Ik03OS45NzEgNzcuNzE1bC03LjM1OSA3LjQ4OCA4LjYzOSA4LjQ5IDcuMzU5LTcuNDg4em0tNjUuMDk2LjA2MWwtOC42NDEgOC40OTIgNy4zNjEgNy40ODggOC42MzktOC40OXoiLz4mI3hhOwk8cGF0aCBjbGFzcz0ic3QxIiBkPSJNNzkuNTUzLjIyMWE1LjI1IDUuMjUgMCAwIDAtMy42NiA4Ljk4NEw4Ni4zODkgMTkuNThhNS4yNSA1LjI1IDAgMCAwIDguOTQxLTMuNzY1IDUuMjUgNS4yNSAwIDAgMC0xLjU2LTMuNzA0TDgzLjI3NSAxLjczOEE1LjI1IDUuMjUgMCAwIDAgNzkuNTUzLjIyMXpNMTUuOTE2IDBhNS4yNSA1LjI1IDAgMCAwLTMuNzIzIDEuNTE2TDEuNjk5IDExLjg5MWE1LjI1IDUuMjUgMCAwIDAtLjA0MyA3LjQyNCA1LjI1IDUuMjUgMCAwIDAgNy40MjQuMDQzTDE5LjU3NiA4Ljk4MkE1LjI1IDUuMjUgMCAwIDAgMTUuOTE2IDB6Ii8+JiN4YTsJPHBhdGggY2xhc3M9InN0MCIgZD0iTTQ4LjEzOCAyNi4yNGMxMy4zNDcgMCAyNS40MzIgMTEuMTM2IDI1LjMxIDI2LjQ4MSAwIDE1LjExLTEyLjI2NyAyNS42NzMtMjUuMTg5IDI1LjY3My0xMS4xNDkgMC0xOC4zMTctNS4xNzEtMjEuOTYtMTAuNzM4bDIxLjgzOS0xNS4wOTd6Ii8+JiN4YTsJPHBhdGggY2xhc3M9InN0MiIgZD0iTTgxLjI1IDkzLjY5M2w0LjY2NCA0LjU4NmE1LjI1IDUuMjUgMCAxIDAgNy4zNjEtNy40OWwtNC42NjYtNC41ODR6TTYuMjM0IDg2LjI2OEwxLjU3IDkwLjg1MWE1LjI1IDUuMjUgMCAwIDAtLjA2NSA3LjQyNCA1LjI1IDUuMjUgMCAwIDAgNy40MjQuMDY0bDQuNjY2LTQuNTg0ek00Ny4zNzEgNS41NzhDMjEuMzQ5IDUuNTc4LjE0NiAyNi43NzkuMTQ2IDUyLjgwMXMyMS4yMDMgNDcuMjI1IDQ3LjIyNSA0Ny4yMjUgNDcuMjI1LTIxLjIwMyA0Ny4yMjUtNDcuMjI1UzczLjM5MyA1LjU3OCA0Ny4zNzEgNS41Nzh6bTAgMTBhMzcuMTUgMzcuMTUgMCAwIDEgMzcuMjI1IDM3LjIyM2MwIDIwLjYxNy0xNi42MDcgMzcuMjI1LTM3LjIyNSAzNy4yMjVTMTAuMTQ2IDczLjQxOCAxMC4xNDYgNTIuODAxYTM3LjE1IDM3LjE1IDAgMCAxIDM3LjIyNS0zNy4yMjN6Ii8+JiN4YTs8L3N2Zz4=;" vertex="1" parent="1">
                    <mxGeometry x="970" y="210" width="40" height="42" as="geometry"/>
                </mxCell>
                <mxCell id="63" value="" style="shape=mxgraph.gcp2.google_cloud_platform;fillColor=#F6F6F6;strokeColor=none;shadow=0;gradientColor=none;" vertex="1" parent="1">
                    <mxGeometry x="956" y="150" width="23" height="20" as="geometry">
                        <mxPoint x="20" y="10" as="offset"/>
                    </mxGeometry>
                </mxCell>
                <mxCell id="71" style="edgeStyle=none;html=1;entryX=0;entryY=0.5;entryDx=0;entryDy=0;entryPerimeter=0;" edge="1" parent="1" source="68" target="66">
                    <mxGeometry relative="1" as="geometry"/>
                </mxCell>
                <mxCell id="101" value="PUSH" style="edgeLabel;html=1;align=center;verticalAlign=middle;resizable=0;points=[];" vertex="1" connectable="0" parent="71">
                    <mxGeometry x="-0.1775" y="-1" relative="1" as="geometry">
                        <mxPoint x="5" y="-1" as="offset"/>
                    </mxGeometry>
                </mxCell>
                <mxCell id="90" style="edgeStyle=orthogonalEdgeStyle;html=1;rounded=0;" edge="1" parent="1" source="79" target="103">
                    <mxGeometry relative="1" as="geometry">
                        <mxPoint x="1330" y="440" as="targetPoint"/>
                    </mxGeometry>
                </mxCell>
                <mxCell id="92" value="&lt;span style=&quot;color: rgb(0, 0, 0);&quot;&gt;API連携&lt;/span&gt;" style="edgeLabel;html=1;align=center;verticalAlign=middle;resizable=0;points=[];" vertex="1" connectable="0" parent="90">
                    <mxGeometry x="0.1578" y="-1" relative="1" as="geometry">
                        <mxPoint as="offset"/>
                    </mxGeometry>
                </mxCell>
                <mxCell id="79" value="&lt;font style=&quot;color: rgb(153, 153, 153);&quot;&gt;Cloud Run&lt;/font&gt;&lt;div&gt;&lt;font style=&quot;color: rgb(153, 153, 153);&quot;&gt;（Service）&lt;/font&gt;&lt;/div&gt;" style="sketch=0;html=1;verticalAlign=bottom;labelPosition=center;verticalLabelPosition=top;align=center;spacingTop=-6;fontSize=11;fontStyle=1;fontColor=#999999;shape=image;aspect=fixed;imageAspect=0;image=data:image/svg+xml,PHN2ZyB4bWxucz0iaHR0cDovL3d3dy53My5vcmcvMjAwMC9zdmciIHhtbG5zOnY9Imh0dHBzOi8vdmVjdGEuaW8vbmFubyIgd2lkdGg9IjM2NS40NjQ5OTY3NzA0MjQ5MyIgaGVpZ2h0PSIzNzkuMjIyOTk0NDYzNTc3OTUiIHZpZXdCb3g9IjAgMCA5Ni42OTU5OTkxNDU1MDc4MSAxMDAuMzM1OTk4NTM1MTU2MjUiPiYjeGE7PHN0eWxlIHR5cGU9InRleHQvY3NzIj4mI3hhOwkuc3Qwe2ZpbGw6IzQyODVmNDt9JiN4YTsJLnN0MXtmaWxsOiNhZWNiZmE7fSYjeGE7PC9zdHlsZT4mI3hhOwk8cGF0aCBjbGFzcz0ic3QwIiBkPSJNMjkuNzk0IDEwMC4zMzZMNDYuOTIgNTAuMTY4aDQ5Ljc3NnpNMCA5OS42NzFsMTIuOTc2LTQ5LjUwMkgyOS4yMkwxNi44OTcgOTIuMDU0eiIvPiYjeGE7CTxwYXRoIGNsYXNzPSJzdDEiIGQ9Ik0yOS43OTQgMEw0Ni45MiA1MC4xNjhoNDkuNzc2ek0wIC42NjZsMTIuOTc2IDQ5LjUwMkgyOS4yMkwxNi44OTcgOC4yODN6Ii8+JiN4YTs8L3N2Zz4=;" vertex="1" parent="1">
                    <mxGeometry x="1130" y="372" width="34" height="42" as="geometry"/>
                </mxCell>
                <mxCell id="94" style="edgeStyle=orthogonalEdgeStyle;html=1;" edge="1" parent="1" source="93" target="79">
                    <mxGeometry relative="1" as="geometry"/>
                </mxCell>
                <mxCell id="95" value="実行&lt;div&gt;（REST API）&lt;/div&gt;" style="edgeLabel;html=1;align=center;verticalAlign=middle;resizable=0;points=[];" vertex="1" connectable="0" parent="94">
                    <mxGeometry x="-0.723" relative="1" as="geometry">
                        <mxPoint y="-31" as="offset"/>
                    </mxGeometry>
                </mxCell>
                <mxCell id="93" value="" style="sketch=0;pointerEvents=1;shadow=0;dashed=0;html=1;strokeColor=none;fillColor=#505050;labelPosition=center;verticalLabelPosition=bottom;verticalAlign=top;outlineConnect=0;align=center;shape=mxgraph.office.devices.cell_phone_generic;" vertex="1" parent="1">
                    <mxGeometry x="1134" y="540" width="26" height="47" as="geometry"/>
                </mxCell>
                <mxCell id="102" value="" style="group" vertex="1" connectable="0" parent="1">
                    <mxGeometry x="1330" y="280" width="63" height="83.50999999999999" as="geometry"/>
                </mxCell>
                <mxCell id="103" value="" style="sketch=0;shadow=0;dashed=0;html=1;strokeColor=none;fillColor=#505050;labelPosition=center;verticalLabelPosition=bottom;verticalAlign=top;outlineConnect=0;align=center;shape=mxgraph.office.databases.database;" vertex="1" parent="102">
                    <mxGeometry width="55" height="77" as="geometry"/>
                </mxCell>
                <mxCell id="104" value="" style="shape=image;verticalLabelPosition=bottom;labelBackgroundColor=default;verticalAlign=top;aspect=fixed;imageAspect=0;image=data:image/png,iVBORw0KGgoAAAANSUhEUgAABLAAAASwCAQAAABBKHtEAAAABGdBTUEAALGPC/xhBQAAACBjSFJNAAB6JgAAgIQAAPoAAACA6AAAdTAAAOpgAAA6mAAAF3CculE8AAAAAmJLR0QA/4ePzL8AAAAHdElNRQfoBwgLHwSHNeLWAABkoUlEQVR42u3dd3xeZf0G4Lsz3ZNZNsgSEQHZW/YWkQ2ClCEgqOwlRNlbloAIiDjBHw5wAg4cCIoMAZlFRoHOdCed+f3BsIW2QHve5M0519UP0lRtcu4nTe4+57zPt1MAqIDGftOWn770tKWmLzFj4NRFZ/Wa3nPawBkN03u09J7RfWr35oZpXZq7JMmkrrOSJDMyqdPb/9+u6dOadGntPTPp2tpzRtK7uffknpN6jmsY0zCq+4iG17u90v3ZC56SMrytkwgASlOiBk1deerKU5efulTLEi2DW/q39J3Se0qPSQ0Tu07o0lzz994rQ6YuNn7giP4v9Xmm12M9H7zgWSuCggVAB3F792dWal6xeZmWZVuGNA+ZMnjKgMl9J/RqahjXdUpdfZyDWj/SNOS5RR8a8Kve9zbOsG4oWAC0u4uXGL/izBWal25ZauoSzYu0DJzSf0qfiT0nNozr2tThvnL3bl154lIvLfbgojdd/Hcri4IFQI01Duq96viPjll+6mLTFp06qGVAc98pvZt7T+nxRtfxpbzeZaev8fwyvxn0zQuft/YoWAAshIuGNH9kynIty7YsOXXxlkWaBzb3n9xnUs8J3Zu6jq/o1+DOWX3yqv9e6ieDr21s8fmBggXAPN225MsfH7nStCX/txc1td+UXqMb3ugyVTjzMKD1ky+u+PMhFzaOlAUKFkBlNQ5qWW7GstOXmrbkrKWmLDNu0ea+U3pP6TmpYWK3UZ1niWcB9Wtd/8Vlbul20bemywIFC6Ckruo3dsWWFZqXmb7U1CVbFmsePLl/c99JvSY0TOjW1FkDqJ0hMzb628rHX/iwJFCwADqst/eisuyUFcYt/ubD5fai2lvnbDhincsXubTREqBgAdSr1p7fXP7FVaYv9b/noqYNGNd/TM+J3Zo6TxNP3Vpx2sa/XPao80dIAgULoL1KVOcLV5y4wtTlpi49bcnmxVoWaR7Q3H9S7wk9J3Qf32WSeDqsfq1bPrr6cRf9RRIoWAA1c8HA8cu/+XD5m3tR0wdPHDym96SGid3Gei6qtLpli2GfOPLSeyWBggWwEBoHtSzX/SNZsWmZpiFvH7o5peekhkndR3RqFU9lS9Y6X7j4HkmgYAG8T4n6317UjMWmDx7X/829qDGdjatDyULBApiHt4cRT1tq6pIti01dZMqAyf0m9Z7YY0K3cV2axcMC6JpPPfeJAy9+SBIoWEDJzb4XNWvJGYuNGzS235sHHdiLohZ6Zoe/r/6Z81+XBAoWUIIaVa1hxNS3xWfu8MMVhjY6ZQMFC+gIJep/A2BmLjl+0aaBbx+6ObrzTPFQZz46ZevTrr5KDihYQF24bckpq72y4ux7UYYR01FtPGLT/S7+gxxQsIA2cdky41ZsWaFl6alDpi7WvEjzwOb+k/tM6jm+e1OXif60UyoN2e0Pa3y6cYIkULCAQrT2uG/IgyuPXGn2ATDNfcf2GtXdABiqZfnpu5x5zcVyQMECPrD/DSOetfS4xcctahgxzO2b2NbD1tvxgmclgYIFvMMwYlh4A1t3+/4KBzf6ewcKFlTLm3tRnVfIck1Dxi3+vwEwE7uN7GwADBRhnXFbH3DJr+SAggUlc83gEStOX75lmWlLtyzRvGjzwOYBk/pM7jWxYVzXcQ46gDbQM3vcvcoejc64RcGCjscwYqhna07cYe9LfiMHFCyo0xJlGDF0TD2z+69X280+FgoWtGON6v6Ryas2LfO/ATBTek7uMbp7k3CgQ/vEhO0+c/F9ckDBghqWKMOIoXp65TM//chnva4QBQsWqkbNfRjxiK7jhAOVtf6YrXe+4EE5oGDBfFw0ZNJKM5aftMy0IS2Lt7wzAGZC96au430OA3PVv3Wvq7/9JTmgYFF5hhEDxdry1U02Pe8lOaBgUXr/ey5q1lJTlpl9AMxo50UBhVtqxp5fvupaOaBgUQKGEQP1o2t2/ftaWzdOkQQKFh2CYcRAR7HmpB0/7egGFCzqhmHEQDn0bf3M9289SA4oWLRdiep8yQrjVpy63NSlpy3ZvFjL4OaBzf0n9Z7Qc2L3cV0miQcoja3/u+Hm570iBxQsCnTBwPHL/28AzNRB0wdPHTC2z5ieE7uN7TxdPEAlDJmx5wlXXyUHFCw+pHkNI57YbWRnw4gBOmWXx9bdtNH2PAoWcytRcx9GbC8K4P2t0rLrAZfdKQcUrMrWKMOIAWqhZ/Y0rRAFq9wlyjBigPaw4Zgtt73wETmgYHXgGmUYMUD9GTxr7wuvO0MOKFh1XaJm34uaPKRpoAEwAPVvm2GbbtQ4Ug4oWO3KMGKAsvnI9L2OvOAWOaBg1ZhhxADV0jV7/GmN7RqNp0DBWljvHUbc3Hdqv6Y+o7qP62wvCqB6Pj5pp90v/L0cULA+AMOIAfigTCtEwZqNYcQAFGXL4Vtu2fi8HKhMwXpzL6rzClmuaci4xQ2AAaA2hszc/4xLL5IDpSpYly81Yp2Wj0xfpmWJ5kWbBzYPmNRncq+JDeO7Nnm4HIA20jm7/2PDrU+ZKAk6bMG6qO/4zcdvPH6tppVGLz6m9xvdJnlNIwB1YLXm3fe76OdyoEMVrMbFmvZt2nLEx19e6vkeRhMDUI96Zp87l9/LtEI6QMFq/MioQ4dvN2y1p3qbsgdA/dtozPbbND4qB+q2YJ24+6tHDtvgkUH2qwDoSAa3HnDFVSfIgTorWI2dJwx9/pgHPzaii6AB6Jh2enaTzc8YIQfqpGCdvtWz5/19vVe7ihiAjm2F6XsedelNcqCdC9YlvZ8/99HP/WOQJwMBKIeu+ewfN97hOLPUaK+CdfriL1/3h92GuyUIQMl8fPIue5x/jxxo84LVuOKT371n43HOsgKglPq07vudbx8qB9qwYJ2/6OO3/mYH5QqAcvvUiO23OuU/cqANClZj15dvvuuAUZ2FCUD5LTFz369+4wI5UOOCdcJ+99zweF9BAlCdb507/GezLU4fJQlqVLDOX/SBe361lkHMAFTNqi2f/dx5d8iBGhSsLx/2i2uHdRchAFXUI3vdu+lORxpSQpEFq7H7k7+/cxN7VwBU2YZNO21/1j/kQEEF6+TVf/+Xfw4SHkDH1CUDMiADMvCtfw9I1yS987+bEr0yLS2ZmMmZmnFpTkvGZVTeyIi0im8Og1oPvOaq4+RAAQXry4f96Po3HCUKUOdf3gdn0Lv+efPHwCz4K5NmZESG540Mz+t5Pk/nmUwRdXZ4YdMtzhwuBxaqYB1x6W0nNMsNoC70fac2DXrPP22hNS/n6fwnT+epPFzhsrXcjH2/fNG1Ph9Z4IK1/69+uKPtYYC21GO20rTIu2pUtzr6OGfk33kgD+bBPFvBG4ld89m/bLX9kTb0WJCCtevf7tpIZADF6zyXPahF3vpZ7w53NWPzQO7Jb/JMxVZxrSn77HP63T6b+VAFq7Hzv/75i7UFBrDgemTgbD+GZMl3fr54yvho6xv5Xe7OPRlXmRXumT1/etuendzq4YMXrF3+fffHxAXw/t9i53ykfPY9qa6VTGR67s+P838ZW5Hr3eKNbT71VdMKFawP9j/77J9/sqmwAN7W4107ULPvSzE3M/NAbsuPMqEC17rorH3Pv/qr1lzBel8H3vm9PUQFVE3/ebw+b5H0F84Cas4vc2PuzazSf3Pd/YlttvziGCuuYM3HMWdef44z24Fy6jHXPaglMzCLxCywWnkhN+aWjCz5Va48fb8jv36L1Vaw5uEru97480mdBAV0XF3netzmm2/1FE87mZr/yzfz11JfY0MO/MOeO+401WorWO9x5gq3PfNSNzEB9W/AO8caDH7XuVH9hFO3/poL88tSn5q1/vhddjzrASutYL3L5sPv97wmUDd6zON23sAsGn8X7KieyMX5YWaU9vr6tR50y7VDrbOCNZvP3fHdz4oIaFvd5nHc5uAMSg/xlNSLOS+3lrhkbf/yDlt85b/WWcFKkpy4x9V3unEM1MageY4i7iucino6Z+bO0t4uXGbmfide/A2rrGDlqoZvjXmit4CABddjHrfz3NBjXv6R03JfSa+tc3Z7YvfNPj/OKle8YO3/yx/sJB7g/XR/zyPlb/5sUAanQTwsgN/kS3m2pNf28ea99zvz59a4wgXrlM2v+lOzdIC3vlAMmuco4j7ioXDTckXOzaRSXlvv7H/Ht/YxrbCyBWuz1/68pHCgWuZ9Q2+xis7Qoz29llPzvZI+kbXhmB22a/yXNa5gwTr65G9eJBooo4Z5vj5vsHPLqTu/zxF5oZRXtljrIZdefLIVrljBauz6g4nPei00dFid53Hc5qAMjleu0LFMydm5ImUc19Ypuz694xZHjbTGFSpYh13z7WMEA/Wuxzxu57mhR9k8msPycCmv7CPT9z/q6zdZ4YoUrGMb7p7wojsFUCclam6vz3vzH8ccUB3T8/VcWMpjSLvngD99boetWqxxBQrWoTfcfIRYoO10ma02vfvZKDf04G0P5HN5vpRXtt7EPXY9/U9WuOQFq7HzjyY/7fkrKNy8b+gtni7igQ+gOafm6lK+rrBf9rn9W/s6uqHUBeuLZ1/TKBRYMD3fNfJl9ht6noqCIvwin8/YUl7ZDq/vttXRz1jh0has9cc+NFAoMG9dZ7uR9+5no3qJB2rupeyTB0t5ZUvNPPD0iy62wqUsWGdte87v7FDCnDf0Zr+d54YetL8ZOTMXl/JWYafs/sRemx/QZI1LV7B2/8fPPykSqlii5ixTizhyE+pceW8VrjL1Mwdf+GMrXKqC1djvqqaxnUVCmXR915NQsz8b1VM80IG9mH3yj1JeWc8c+PNt99x7pjUuTcE66sLrThEIHVGPedzOG5gl4u8MUFblvVWYbDxuj51OesAal6RgbfXyH5YRCPWq9zyO2xyUwUoUVNZPc1hJbxUu0nrIlZd+xQqXoGCdvuQ3XpsiD9pZj/fsQb35Y+n0Fw4wF6/kwNxf0mvb/qXdNjvmFWvcMb1zOM+oU9Qr2saguexBvfmjr3CAD2mZ/D7n5ZxSDtL57XLPDzvzi+feYJU7ond2sLZ+8b7lxUFResz11XkDMzCLmqEHFO7B7J9hpbyyrtn3wd222rvZGnfQgtXY/aqWsZ3EwYczcK6384ZkqTQIB2hTE/KF/LCk1/aJKXvvc/rd1rijVeMkydhD1Svm3sDndkPvzVHEfcQD1I1++UG2ypdTxsddHu017K5jbrvmYNMKO9b3zyTJPvf8eBthVNe8b+gtZoYe0IE8nf3zSEmvbeuRO3/q+CetcQcrWBuO+vsiwii7ud3QG5IlM9gNPaA0pubsXJJZpby2xWbtd+6VZ1vjDlSwGrtf3jLBLcJS6DHX4zYHZmCWjCUGquGefC5vlPSb9mee3m3Tg8dY4/rXNUkm7qledbwSNbezy93QA0i2zWM5JL8u4ZW15v9W+/drXzvi7Futcv2X4SQH/eS2PUVRzyVq9jJlEDHAB6kiV+XkTCvpd4j9/rTX9jtNtcp1X7C2fOWPS4ui/WqUG3oAtfDP7J/nSnptG47/zM4n/9Ua13nBWnzGiC6iqJV+7xxrMOc/i2SAcABqakKOyfdKem2DWw++9vJjrXEdF6wzVzr3eUEsnB7zuJ030A09gHZ2R47IuJJe2/Yvf2azI1+2xvWoazJhWzF88Bo1ZB5nlwNQn/bKejkgfyvltf122aeGnXnauZdY5frTKfn8d245WBCzl6i5vT5vYBaP+6gAHdOMnJtzSno6Vtfs+eieW+493irXXcH69D9+9smqXXbnDMnyWWIuz0YpUQDldE8OzuslvbZ1mvfd+2TTCuutYG0y4q+LVeNil866WTfrZOUs5+xygMoZlUPyq5JeW98c8pOr9uk0yyrXUcFabtpL3cp9kX2yTbbPDlneegNUWmuuyikp6wFSW4/89DbH/tsq10nBahxwTtPMEl/gujki+6ePlQYgSfJk9ktZW8hirZ+/7KKTrHE96DxlvbLWq07ZJf/KP3OEegXAO9bIgzmupNc2stPFJ+72wg1LWuU6KFhTVy7nha2XR3JX1rbCALxLz1yZ20t62HNrfrHiFS+d/3mr3P4Fa8XyXVSXnJe/ZS2rC8A87JVHs0lJr+3pbl+7+fD7nvNqrvYtWFOWKdslNeQHOT1drS0A87Fc/pSzS3o4z9Tc+KkDR166uVVux4LVvES5LqhLfpq9rSsAH+A7RmN+n2VKenUP9jvvj6fc0trJOrdTwZq8aLku6GvZ0aoC8AFtnkezR0mvranTRYfs9uqtq1jldilYEweW6XJWycnWFIAPYVDuzK3pXdKru2vIGU+dcapVbo+C1atMl/PVdLOmAHxIn8uDWbOk1/Zqlwsv2P8fP+9rldu4YLWUqJF0yy5WFIAFsEYeynEp5wNLM/ODT3515AV7WOU2LVgzOpfnYtYs6akmANRej1yZn2WRkl7d4z3OvfO4X7R2sc5tVrCmlahgOboWgIWxW57I9iW9tsm5atfNRl+xkVVWsD606dYTgIWyeH6db6R7Sa/uLwPO/+uZ11jlttBp0MyxpalYH82TVhSAhfb37J8Xy/qNP3s+v+cW+71mlWucc+9Zk0vzTF/nvJbFrSkAC21Cjsn3Snt1K08/8Jizb7TKNe0k00v0kolZ+aUVBaAA/XJbbkmfkl7dc93O+9bhf/lbT+tcO53SWqbL+VgeS2erCkAhns3+ebi0V7fBpH13/8rvrXJtlKyNPJEfW1MACrJK/pYTUtZxfg/2abz31B+02peoiZLtYCWL5N9ZwroCUJj7clBeL+3VbTNij62O+Y9VLlrpeuvofD4zrCsAhdk6j2SH0l7dvYtf+MRZZ1jlopVuBytJhubbVhaAArXmqpySqaUtA595ep9N9h5rnRWs93Fork0PqwtAgf6V/fJsaa9uzamfP/T4H1hlBet9rJ07s7z1BaBAzTk1V5X26nrm4PuO3WmNadZZwZqvRfKjbG2FASjU/+XwNJX26jYev9fOX/mrVVaw5qtrzs0p1hiAQr2cA/KX0l7dIq1HXHf+MVZZwXof++Xb6WWdASjQjJybczOztNe3/cv7bHroK9ZZwZqvtfLTrGClASjUH3NQXi3t1a0847ATTrnKKitY8zU4P8y21hqAQo3Lkbm9tFfXNQc8fPhWm060zgrWfHTJeTm5tMMOAGgv381RmVLaq1u7ef99TrrLKitY87VPbkpvKw5AoZ7Kfnm8tFfXL4fcfeXunWZZZwVrPlbLT7OaNQegUC05JVeX+NvpNiP33PqoJ6yzgjXfJv7d7G7VASjYz3JYxpT26paadeSF5hUqWO9zwSfn/PLNuAagnb2aA/OnEn/3/Oxzh2y+8xvWWcGaj13yvfS39gAUqjVX5aRML+31rTb9c0eefot1VrDmY5X8NB+1+gAU7KHsnxdKe3U9cuBfD9hmqxbrrGDNU998J5+x/gAUbEKOyg9KfH0bT9h3l+P+bJ0VrPlcuqexAKiF7+aYTCrt1Q1uPermcw7v1GqdFax52infy0CfBQAU7Jnsl0dKfH07v3bwFns/b53nreIbOL/K+nG0BwBFWzUP5uwSf5P95ZATn2482TrPW8V3sJKkT27OXj4TACjcPTk4r5f26rpmnyc/u+ke46yzgjXPEE7OeekiCAAKNjKH5Nclvr5PNB+4/4k/s84K1jxtmduzqBgAKFhrrsrJmVba6+ubz9995ac7zbTSCtY8LJv/yyfFAEDh/pn981yJr2/bsQdsd8jD1nl2Til4x8vZLLeKAYDCfTIP54gSX989g07+x1lXWefZ2cF6lyNyTbqJAYDC3ZEjMq7EhWLXYXtufvBw66xgzcPmuT2LiwGAwr2UA/LXEl/fqtMPPub0G62zgjUPS+f/sr4YACjcjJybczKrtNfXIwf+9dBtN2620grWXDXkmzlUDADUwB9yUMp8J23jSYfsccS9CpaCNQ9H5Op0FwMAhRudQ3NXia+vf+uRP7rowE6zqrzGCtZ8bJo7soQYAChca27MVzKlxFe4zYh9tjr8PwoWc7VUfpINxQBADTyZ/fLvEl/fMjOHntV4voLFXDXk6hwuBgBqoDmnpszHR3XJvk/ut9kuTQoWc+VpLABq5ac5LGNLfH1rTR36+eN+qGAxV+vmziwrBgBq4JUcmPtLfH09c/B91+3YaXq1VtWonA/k4XwyfxADADWwTH6fC0s8RaQ512+93YhbK3bApB2sD6xrzs0pYgCgJv6eAzKsxNe3WOsXbzzrSAWLuTow30pPMQBQA+Pzhfyo1JVj9//us/l+ryhYzMXauTPLiwGAmvhujs7kEl/fKjOOPOGEq6qwkgrWh7ZIfpStxQBATTyd/fJoia+vW/Z/+OQt15hU9nX0kPuHNjo75CIxAFATq+XvOS6dSnt903Pruoe9cf0OZV9HO1gLyNNYANTOXRmaUSW+voE57ieN+5R5WqGCtcDWyk+zghgAqImR+UJ+Wuor3HbkXp864smyXp1bhAvssayXe8UAQE0sljtzbqmv8J7Fzn38oq+X9ersYC2ULjkvJ5f4TjkA7eu6fDElvo+WztnzuSM322aEgsV77J2b01sMANTEN/KVkl/hWtMOG3rs9xQs3mO1/DSriQGAmjgy3yr5FfbM0Pu/tN3KUxUs3mVgvp8dxQBADUzL1vlL6a9yq3EH7Xzo3xQs3hPkyTnfawYAqIHh+VjGlf4qF2095ttnH9mpJL1EwSrQHrk1fcUAQOHK/yTWm6Vkr5c/t9Uuw8pxLQpWgVbPT7OqGAAo2NSsmpcqcaWrzPzCScdf0fGvwz2tQv0n6+VOMQBQsIYcVpErfbbLyZcPfewvHf6GkB2sGkT61ZytuQJQqKeyRoWudv3J+37m+N8pWLzLLrktA8QAQGFmpUemV+h6+7UO/d4Vn1OweJeV89NK/V0DgNqakYZSn+k+N9u8ssFm53XQR8/cyaqR57JhfiIGAArym8rVq+TeZW59/itDO+bHbgerpuGeknPTRRAALKSns3Veq+SVd8v+9+y8494zFSzmsH1+kEFiAGCBNGd0/plf5dZKPX/1bhuP3mHLs55UsJjDirkza4kBgLloyviMy/h3fozL+Ix751fGpUVESZIlZu136hWXKFjMoUeuyyFiAKic5rSkOU3v+vG/XxuVGUL6wIVlu4eW3OI7LR3n41Ww2sQRuSbdxABQsgI19+L05o+xmSqiQq0zfutPXfIvBYs5bJ7bs7gYADpYfZrbHtSbvzqigq/ra2+DZn2m8dvnKFjMYdncmXXFAFAXWt55zmncbE9BjZvtV32DrM/isstDgzvArUIFq0015Js5VAwAbaB5nrfu3v5VOqrVJ2y+9Q3/VLCYwxG5Ot3FALDQ9Wl+D5CPzEwhldjgWfuefu1FChZz2CR3ZEkxALxPgZr34+NjMk1EFdcln/nTGts01u3LMBWsdjEk/5cNxQBUvj7Naw/qDd+c+AA2G/3pTU54VsFiNg25KkeIASh5gZr7HtToSp9KTpFWmHHgwef8QMFiDgflhvQUA9Ch69Pc96CgrfTIvrd+5xAFizlslJ9kiBiAujLxXYNbmt51hMFEEVFndnrqo+tfOlnBYjaL5sfZSgxAG2qez807j4/TMa01fqcNL3hawWI2XXNuThEDUHB9mtfZT47PpJyWm77nZy6/W8FiDofkuvQQA/C+psx2u27u549DVfVv3ffkGy5VsJjD2rkzy4sBKm/+j48bHgzz0zX7f/u7hytYzMHTWFB+E9+15zRutp2n8RmfSSKChaw1B951224KFu9q3hfmBDFAhzX1nbLU9K7X4Y1/67V4s4QENbfH33+6cfu3GwWrzuye76afGKAuNb/P2U9NIoK6sNtjP1+7Uzv3GwWr7qyWO7O6GKAd6tO8Xnf35q+OygwhQQfx6cd+9gkFi3cZkNuyixigUDPeuk037j03795+DsrwFiiTXf5+90YKFu9ZljNzdroIAj6wCe85sqBpjrcmiwgqZv+7f7CrgsV7bJAfZgUxwFsMDwY+bMU57Js3HqNg8R6DcnN2FwMV0PquQzPfuwfl9Cfgw+uRzx963S0KFnNxUK5PLzHQwTXP83V3b/7ayMwUElADS8w8bI1zn1GwmIu18qOsJgbq2PT3OftpvFffAe1m09HHLbF3O/wdTsHqAHrm3HzJI++0m/HvuXk35/njU0QE1LF97vzxngoW87BhbnY6FjUyv7OfPD4OdHQNOXKbq+5TsJiHHmnMifaxWKj6NPfnoADKbYPRDy6qYDEf6+emfEwMzGbiu27eNb3rKaiJIgLI4efe+FUFi/nomkNzbhYVRGU0z+fsp6aMyTQRAbyvFaYe3KexTV9vo2B1QANzdo5JV0GUqD7NawbeOH9AAQrxhcuuP1HB4n2tliuygxjqvj61zPf8ccODAdrs+2bz073bsvMoWB3Ytjkzm4uh3cx8n7Ofxnn1HUAdOfSom69XsPiANskp2VUMNdE8n9fdNacpIzJLSAAdxnbP/K4Nz+1WsEpgo5yanR3g8CFNfWfXqek9O1Bv7kGpTwBl0rf1vMWPG6Vg8aEsnaE5NMsK4h1NcxkdPO6df493+hNA5Rx62c1t9qC7glUinbN9Ds9OaajAtU6e79lP4zPepwMA77L1M/e12U1CBat0euVT2TW7ZYkOfRXN8zn7qSljM9VCA/AhDZnxWjcFi4XSJRtn52ySddOzDj+66RmbsWlK0zt7Tk1z7EBNtoAA1MCpW134x7Z5T06rLKmZ+XP+nKRb1sqG2SCfzErp1obvf1LGZVya3vrn7f8cn6aMzdhMskAAtIPh+6SNCpYdrMromuXykayclbNSFs1iWTS9F/j3asmkTMj4TMqkTHynRs1epZwABUD92eWhuzdQsKixnlkki2ZQOqd/koFJ+qfzO//tpLdK0uRMy+RMy6RMz6RMy7hMdP44AB3ShqP+vpiCBQBQoKVmDG+j52U6CxsAqIbXuu4/UMECAChQawasoWABABRrVQULAKBQM1ZUsAAACtWyjIIFAFCoqX0VLACAQrW20QQ5BQsAqIyZDQoWAICCBQBQz2Z0V7AAAIrVScECAOiQFCwAAAULAEDBAgBQsAAAULAAABQsAAAFCwAABQsAQMECAFCwAABQsAAAFCwAAAULAEDBAgBAwQIAULAAABQsAAAULAAABQsAQMECAEDBAgBQsAAAFCwAAGbTVQQAUCXd0z/90z8D0j/90++tf/qnb3qldwZmYqZkcpryev6TZ/KfvCEyBQsAqq5HBs72o+d73h74IX+/F3NP7s1vMlG0ChYAlFHPd/abBr7177d3oAa+9e+Gwt/nCjkiR2RKbstVecoSKFgA0LH0eqcyDciAOQrUgAxI//RL93b82I7MEbknZ+VBC6VgAUC96PGe23Vz3sAbXIPdp2J1ynbZNrflhIy2nAoWANRe33du3v1vv6n/O/85IP3TpRTX2Smfy445NHdbcgULABZOj3k8MP7224u04827trdofpGv5etp9YmhYAHAvAyYY7dp9gMM3n6AnDl1SmNWyqGZIQoFC4Bq6jHPAwvefHsx3wwXyEHplIMzSxAKFgDVqU9v/4r6VDsHZlyOFYOCBUDH0mUut+vmPMCgr5Da1RfzdK4Vg4IFQD3pMc/zxt/8lSWMzK17l+b+/FsMChYAbV+f5v7805LpJKQSrPIPsl5aBKFgAbDwGt41oOXtE8cHvvPznkKqiI/ltJwtBgULgPdX9MBgyuyk3JhXxaBgAVS9PPWcb4EalB5C4kPomTNylBgULIAy6z3fAzP7pX+6CYmCHZbL85wYFCyAjqrHfAe2dISBwZSzThyb48SgYAF0zPpUrYl3dCSfy2mZLAYFC6B96tP8CtSibt7RYfXP/rlRDAoWQNEGvnVQQf+5HmDQPwNERKkdrmApWAAfloHBMH+fzDJ5RQwKFsB769O8CtTi6SIkmK9O2TXfFIOCBahPb79t4h0UYTcFS8ECyqLbuwa0vPmfA946B6pf+qe3kKBNbJk+mSQGBQvoCOY3MHhgemaAgcFQJxqyXv4gBgULqK/6ZOIddHQbKFgKFtDe9cnEOyhfwULBAhayPBkYDMxpYxEoWMD89JnvgZn909+XD+A9FssSeUMMChZUlYl3QG18RMFSsKDM9Wl+BUp9AmpXsP4iBAULylifDAwG2s/KIlCwoH7rk4l3gIKlYAELWZ9MvAPKYWkRKFhQq/pkYDBQVYuIQMGCourTm79iYDCAgqVgwTzq09z3n5Y08Q7gfQ1It0wXg4JFFevT3AqUgcEAReiUwU7CUrAoS3l684zxARnwrhPHB6Zf+qefkS0Abaa/gqVg0THqk4l3AB2Hg4wVLDpAfRqcBiEBdCC+aitYtEF9mv/EO/UJoGzsYClY1KA+mXgHUG3+4qxg8b56ZbksncHpnwEZMMfj4/297g6AufBXawWLuVoma+UTWSsrZ+kMFgcAH4ojlxUs5rBCts122cIpvACgYLHwVs4h2csEdABQsChC9+yXodnU01QAoGBRhG7ZN2dnJUEAgIJFMT6dy7KiGACgBjzqX0n9c0N+ql4BQI3YwaqgLfKDDBEDANSMHazK+Wx+o14BgIJFcU7N7ekhBgCoKbcIK+XLuUAIAFBzdrAqZJdcKgQAULAozjq5PV3EAAAKFkVpyK3pKQYAULAozjn5mBAAQMGiOJ/M8UIAAAWLIp3v6SsAULAo0ibZVggAoGBRpHNFAAAKFkVaM1sKAQAULIo0VAQAoGBRpO7ZXwgAoGBRpF2yqBAAQMGiSDuLAAAULIrlgAYAULAo1EezjBAAQMGiSPavAEDBomDriwAAFCyKtbYIAEDBoki9s4oQAEDBokhrpYsQAEDBokiriwAAFCyKtZwIAEDBQsECAAWLura8CABAwaJYy4oAABQsirW4CABAwaJIDekpBABQsCjSQBEAgIJFsQaJAAAULIo1QAQAoGBRrF4iAAAFi2J1EwEAKFgoWACgYKFgAQAKloIFAChYLLCuIgAABYtidRIBAChYAAAKFgAAChYAgIIFAKBgAQAoWAAAKFgAAAoWAICCBQCAggUAoGABAChYAAAoWAAAChYAgIIFAICCBQCgYAEAKFgAAAoWAAAKFgCAggUAoGABAKBgAQAoWAAAChYAAAoWAICCBQCgYAEAoGABAChYAAAKFgCAggUAgIIFAKBgAQAoWAAAfDhdRQAAtTMu4zMh4zMzWwhDwQIA3l9zmtKUprS887M53x6VGW/9L7tnYroLTMECAPXpvZVp9rdHZNYH/r2m5T9ZS6QKFgBUpz7NrUCNS2uh7+8RBUvBAoCObFImvPXs0/h3noJ6859xGZcJGZ9pbf4xPWpZFCwAqF/Nc9lzmv2tMe1Qn97fcxZOwQKA9q1P835wfHSmd8jresHSKlgAUNv6NK8CNTIzS3rl/83MdPEJoGABwIczdbannsbP9SmoyZVO57Us45NEwQKA2TXP56mnN99uEtJ8jVKwFCwAGJ8H8mSez/N5Lq910Cef6sloEShYAFTXlPw6f8r9eaK0z0O1jzEiULAAqKLm/Cq355eVflaqdsaJQMECoGpezw25OmMFUTMzRKBgAVAlj+bC/J8CUGNuuCpYAFTG8Hw9N/nmr2ChYAFQjJacn8syRRC+6WKtASjGEzkwj4mhzfQXQWV0FgFANbXmynxSvWpTA0RQGXawACppYvbJr8XQxvqJQMECoLyGZ9c8IoY2t6wIFCyAWhr/1uy6jUTRDh7JznldDG2ui4KlYAEsrDnHAM/5Y/Q7U+1+k+1F1caezY4ZIYZ2sGy6C0HBAng/U2arTGPf8/MPNhj4yDyRPqJsQy9kK/WqnawmAgULIEmmzrU6vf3zqQW8h5dyaq4RdJt5I9vmNTG0EzfEFSygQuZ3K++NtNb8/V+XvbO5ZWgTM3NQXhRDu9lEBAoWUB6z5th3evcu1KQ6+PgOz6PpaaHawBm5VwjtplvWE4KCBXQs83oOqilNGV/3H/2zacxFFrHm7srFQmhHW6WvEBQsoN7M70beqMzo4Fd3WT7rb/c1NjFHtcENX+ZtLxEoWEB7mDTffaiZpb72mTks//AS9po6O8OF0K7fbj8tBAULqI357UIV85q8juvxXJCzfYrUzBNeq9nO9skiQlCwgAU1dT57UE1pEdB8nJ898zEx1MjxH/BcMmrlRBEoWMD8TJ/v4ZpTBLTApmVo/pYugqiBf+UeIbSr7fMJIShYwNtG56k8l+EZkdffKVITxVIzD+UKf8+vCa8ebF/dcokQFCxgRv6WP+fveSgjhdHGzsruWVkMBRuWnwihXX05awpBwYIqm5xf5M7c0wFOjiqr5hye36ezIAp1S8lfg1rvPpKzhKBgQXU9mGtzZyYLop39KTfkKDEUyv5Ve+qXnxtnXkn+oghpzc+zQTbMbepVXTglLwuhQE/kaSG04zfZ7+WjYlCwoIp+m3Xz6TwkiLoxMUcKoUD2r9pPt3wvu4pBwYLqeTG7Z4c8Iog685vcKoTC/F4E7aRXfp79xKBgQdXMyjVZM78QRF06Pm8IoRAz8y8htIu18kB2FIOCBVUzMjvkWM9c1a2xOUYIhXjKZ3k76JYz81A+LggFC6rmwazjZOs6d6dnhwrh6cK21iNH57mcY3R55TmmgQr6TT7rb/UdwBezVQaLYSF5BWHb6ZR185kckiVFgYJFFf0ghxh72yGMyFfyXTEsdIrUWt98LGtm7eyUZYWBgkVVXZMvZZYYOojbsm92EoOCVZcGZp2sm3WzTlZKJ3GgYFFtP85xaRVDB3J4nswAMSyE10VQqP75WNbNulk3H1WrULDgTX/KwepVB/NaTs31YlgITSIowKJZN+tk3ayT5YWBggVzejqfyVQxdDjfymezjRgWmF2WBTcga9itQsGC+ZuYXTJWDB1Qa76Qx9NLEAvIYQEf1pJvPVm1bpYSBgoWvJ+v5AUhdFAv5Ku5TAwLqJsIPkStWjefdMgCChZ8cL/NzULowL6Rz2QTMShYNatV62UJYaBgwYc1Jod4uL1Dm5XD8kh6CGIBOKp13hbLa0KgZozKoQJOMTi4w3s65wlhgawoAlCwoBb+k1uFUAIX5l9CWADLiwAULKiFkzNDCCUwI4cacbQAVhABKFhQvPtztxBK4jGvJVwAH8/aWUQM0OY85E7JNYqgRL6WT2c1MXzIgvWvJM15Oa/klbf+85W8lCmiAQULFtRT+aMQSqQln89f0kUQH1rPrJpV5/iV5ryeYRmW1/J6huW1/FflAgULPqhrHM9QMn/PtTlODIVUrhXf9QrDpnfq1pv//m9miQkULHivifm+EErntOyclcRQAwOzbtad7e1pGT3HLtcwg6NBwYIk+WEmCKF0puQL+Z3Ru22ge4ZkyByVa3xeyUt5Na/k5bycV/Oq8emgYFFFd4qglO7NzRkqhnbQP/3zsTl+pWmOm4rD8lJmigkULMptggfcS+vE7JghYqgDAzMwa8z29rQMz6t5Ka/klfwqLwkIBQvK59duX5TWuBzhfLO61D0rZIVsliT5XG4TCBXmoFFK6y4RlNgv8yMhAAoWtL0/i6DUjs1IIQAKFrStUXlZCKU2Ol8WAqBgQdt6SASl98P8VAiAggVt6R8iqIBjHH0JKFjQlp4SQQW8npOEAChY0HacwFMNN+d3QgAULGgrHnGvhtYckUliABQsaAtTM0IIFfFSzhACoGBBW3gjrUKojGvyVyEAChbUXosIKmRWDk2zGAAFC2ptmggq5dl8XQiAggUKFsW6NP8UAqBgQW1NF0HFzMhhVh1QsKC2eougch7LRUIAFCyopcEiqKBz8qQQAAULameQCCpoWoZmphgABQtqpUd6CaGCHsyVQgAULKid5URQSV/N80IAFCyolY+JoJKm5DCn+AMKFtTKGiKoqD/lW0IAFCyoDTtY1XVyXhEC0M66ioBy2jNT0pSmvJ7X5vh3k0HQpTchR+ZXYgAULKiFnumZIXO5VdiSsW9VrTnL16jMEFpJ/Drfy4FiABQsaDs9MiRD5vrfNM+2z/W/8jU8U4XW4Xw522ZxMQAKFrS/nlkxK861eM15k/Htn7nZWL/G5Iu5QwyAggX1XLzmdbNxdEZnREZndEZnVEbmp8KqGz/JnfmMGAAFCzqaHlk6S8/2dquX5daVY7KloUlAO/H9ACipN3K8EAAFC6BYt+Y3QgAULIBiHZbxQgAULIAiDc/pQgAULIBiXZf7hAAoWABFas3hmSwGQMECKNKLaRQCoGABFOvy/E0IgIIFUKRZOcxESUDBAijWf3KBEAAFC6BY5+URIQAKFkCRZmRoposBULAAivRIrhACoGABFOus/EcIgIIFUKSpGZpZYgAULIAiPZDrhAAoWADFOiXDhAAoWABFmpzD0yoGQMECKNLv8x0hAAoWQLG+kuFCABQsgCKNzxeEAChYAMW6O7cLAVCwAIp1TEYKAVCwAIo0OscLAVCwAIr1/fxcCICCBVCso9MkBEDBAijSazlFCICCBVCsb+ceIQAKFkCRWnNEJokBULAAivTffFUIgIIFUKyr8hchAAoWQJFm5bC0iAFQsACK9EzOFQKgYAEU66I8LARAwQIo0owMzXQxAAoWQJEeyyVCABQsgGJ9PU8KAVCwAIo0NUMzUwyAggVQpAdzjRAABQugWKfnBSEAChZAkabk8LSKAVCwAIr0h3xbCICCBVCsE/OKEAAFC6BIE/IFIQAKFkCxfpUfCAFQsACKdVxGCAFQsACKNCZfEgKgYAEU68e5UwiAggVQrGPSJARAwQIo0hs5QQiAggVQrFvyWyEAChZAsY7MRCEAChZAkV7K6UIAFCyAYn0zfxYCoGABFGlWDkuzGAAFC6BIz+ZrQgAULIBiXZp/CAFQsACKNDNDM00MgIIFUKR/50IhAAoWQLHOyxNCABQsgCJNy9DMFAOgYAEU6aF8QwiAggVQrK/mOSEAChZAkZpzeFrFAChYAEX6U64XAqBgARTrpLwoBEDBAijSZLcJAQULoGj35TYhAAoWQLG+lOFCABQsgCKNy9FCABQsgGL9Ij8RAqBgARTrqIwSAqBgARRpdE4QAqBgARTrtvxCCICCBVCsozJOCICCBVCk13KaEAAFC6BYN+ReIQAKFkCRWnNEJokBULAAivRizhYCoGABFOsb+asQAAULoEizclhaxAAoWABFejrnCwFQsACKdUH+JQRAwQIo0owMzXQxAAoWQJEezWVCABQsgGI15ikhAAoWQJGmZmhmigFQsACK9Pd8UwiAggVQrFPzghAABQugSFNyRFrFAChYAEX6fW4RAqBgARTr+LwqBFCwRADVtUe6CKFw43OUEEDBEgFU13o5Wgg1cHd+JARQsIDquiDLC6EGjs1IIYCCBVRV71wrhBoYnS8LARQsoLp2yl5CqIEf5mdCAAULqK6rMlAINXB0moQAChZQVUvkIiHUwOs5WQigYAHVdVg+JYQauCm/EwIoWEBVdcp16SGGwrXmiEwSAyhYQFWtktOFUAMv5QwhgIIFVNdpWUsINXBN/iIEULCAquqaGwzOqYFZOSwtYgAFC6iqDfIFIdTAM/m6EEDBAqrr/CwthBq4JA8LARQsoKr65Xoh1MCMHJrpYgAFC6iqnbOnEGrgcYe5goIFVNk1BufUxDl5UgigYAFVtUQuEEINTMvQzBQDKFhAVR1hcE5NPJirhAAKFlBVBufUypl5XgigYAFVtUpOFUINTMnhaRUDKFhAVZ2WNYRQA3/MjUIABQuoqu65yZeHmjgprwgBFCygqjbIkUKogQlyBQULqLILDc6piV/ne0IABQuoqn65Tgg18eWMEAIoWEBV7ZI9hFADY3KsEEDBAqrr2gwQQg3ckTuFAAoWUFVL5nwh1MQxGSsEULCAqjoymwqhBt7ICUIABQuo7heJb6dBDDXwnfxGCKBgAVW1ak4RQk0cmYlCAAULqKoz8lEh1MDLZj6CggVUl8E5tXJ97hcCKFhAVW2Yw4RQA7NySCaLARQsoKouyVJCqIEX8zUhgIIFVFW/XCmEmrgsDwgBFCygqvbMp4VQA7MyNFPFAAoWUFUG59TGf3KBEEDBAqpqSM4VQk2cl0eEAAoWUFVHZRMh1MCMDM10MYCCBVT1S4bBObXxSL4hBFCwgKpaLScJoSa+mv8IARQsoKrOzOpCqIGpGZpZYgAFC6imhlyfTmKogQdynRBAwQKqavMMFUJNnJJhQgAFC6iqSw3OqYnJOTytYgAFC6im/rlcCDXx+9wqBFCwgKraO7sLoSa+nOFCAAULqKpvpr8QamB8jhICKFhAVQ3JOUKoibtyhxBAwQKq6phsLISaODojhQAKFlDVLyDXp5sYamB0jhcCKFhAVa1pcE6NfD8/FwIoWEBVnZXVhFATR2ecEEDBAqrJ4JxaeS2nCAEULKCqtsjnhVATN+YeIYCCBVTV5RkihBpozRGZJAZQsIBq6p/LhFAT/81ZQgAFC6iqfbObEGriyvxFCKBgAVV1dfoKoQZm5bC0iAEULKCals3XhVATz+RcIYCCBVTVcdlICDVxUR4WAihYQFW/nNxgcE5NzMjQTBcDKFhANa2ZE4RQE4/lUiGAggVUVWNWFUJNfC1PCQEULKCaDM6plakZmpliAAULqKYtc7AQauLvuUYIoGABVXVZFhNCTZyeF4QAChZQTYNyhRBqYkoOT6sYQMECqmn/7CqEmvhDbhICKFhAVV2TPkKoiRPyqhBAwQKqadl8TQg1MSFfEAIoWEBVfTkbCqEmfpkfCAEULKCqX1wMzqmV4zJCCKBgAdX08XxFCDUxJl8SAihYQFU1ZiUh1MSP81MhgIIFVFPP3GhwTo0ckyYhgIIFVNNWOUgINfF6ThQCKFhAVV1ucE6N3JzfCgEULKCaBucyIdTIkZkoBFCwgGo6MLsIoSZeyhlCAAULqCqDc2rl2vxZCKBgAdW0XM4WQk3MymFpFgMoWEA1fSXrCqEmnjX1ERQsoKq65CaDc2rksvxTCKBgAdW0lvEuNTIjQzNNDKBgAdX0NYNzauTxXCQEULCAauqVbxmcUyPn5gkhgIIFVNOncoAQamJahmamGEDBAqrpG1lUCDXxUL4hBFCwgGoanEuFUCNfzXNCAAULqKbPZTsh1ERzDk+rGEDBAqrphvQWQk38KTcIARQsoJqWz1lCqJFT8rIQQMECqun4rCOEmpiQLwgBFCygmrrm5nQVQ038Ot8VAihYQDWtlWOFUCNfynAhgIIFVNO5WVEINTEuRwsBFCygmnrlWiHUyC/yf0IABQuoph2yvxBq5KiMEgIoWEA1XWlwTo2MyolCAAULqKZFcrEQauS7+YUQQMECqumQbCOEGjk644QAChZQTd8yOKdGhuc0IYCCBVTTCjlTCDVyQ+4VAihYQDWdmLWFUBOtOSKTxQAKFlBFXXNDuoihJl7M2UIABQuopvXyRSHUyBX5mxBAwQKq6fysIISamJWhaREDKFhAFRmcUztP5wIhgIIFVNOO2UcINXJ+/iUEULCAaromiwihJmZkaKaLARQsoIoWyUVCqJFHc7kQQMECqunz2VoINXJ2nhICKFhAFXXKdekphpqYmsMySwygYAFVtLLBOTXzQL4pBFCwgGo6OZ8QQo2cmmFCAAULqCKDc2pncg5PqxhAwQKqaP0cLYQa+X1uEQIoWEA1XZDlhVAjx+dVIYCCBVRRb4NzamZ8jhICKFhANe2UvYRQI3fnx0IABQuopqsyUAg18sWMFAIoWEAVLWFwTs2MzleEAAoWUE2H5VNCqJEf5GdCAAULqKJOuS49xFAjR6dJCKBgAVW0Sk4XQo28npOFAAoWUE2nZS0h1MhN+Z0QQMECqsjgnNppzZGZJAZQsIAq2iBfEEKN/DdnCgEULKCaLsjSQqiRq/MXIYCCBVRR31wvhBqZlcPSIgZQsIAq2jl7CqFGnsnXhQAKFlBN1xicUzOX5GEhgIIFVNESuUAINTIjh2a6GEDBAqroCINzaubxXCwEULCAKjI4p5bOyZNCAAULqKJVcqoQamRqhmamGEDBAqrotKwhhBp5MFcLARQsoIq65yZftGrmjDwvBFCwgCraIEcKoUam5PC0igEULKCKLjQ4p2b+mBuFAAoWUEX9cp0QauakvCIEULCAKtolewihRibkC0IABQuopmszQAg18qt8XwigYAFVtGTOF0LNfCkjhAAKFlBFR2ZTIdTImBwnBFCwgGp+6fp2GsRQI7fnTiGAggVU0ao5RQg1c0zGCgEULKCKzshHhVAjb+QEIYCCBVSRwTm19J38RgigYAFVtGEOF0LNHJmJQgAFC6iii7OUEGrk5ZwmBFCwgCrqlyuFUDPX5X4hgIIFVNGe+bQQamRWDkuzGEDBAqrI4JzaeS5nCwEULKCKhuRcIdTM5fmHEEDBAqroqGwihBqZmaGZJgZQsIAqfiEzOKd2/p0LhAAKFlBFq+UkIdTMuXlECKBgAVV0ZlYXQo3MyNDMEAMoWED1NOT6dBJDjTySK4QAChZQRZtnqBBq5qv5jxBAwQKq6FKDc2pmaoZmlhhAwQKqp78bWTX0QK4XAihYQBXtld2FUDMnZ5gQQMECquib6S+EGpmcI9IqBlCwgOoZknOEUDP35btCAAULqKJjsrEQauZLGS4EULCAKn5Zuz7dxFAj43OUEEDBAqpoTYNzauiu3CEEULCAKjrL4JwaOjqjhAAKFlA9DbnO4JyaGZ3jhQAKFlBFW+TzQqiZ7+XnQgAFC6iiyzNECDVzdMYJARQsoHr65zIh1MxrOVUIoGABVbRvdhNCzXwr9wgBFCygiq5OXyHUSGuOyCQxgIIFVM+yBufU0H9zlhBAwQKq6NhsJISauTJ/FQIoWEAVv8jdYHBOzczKYWkRAyhYQPWsmROEUDNP5zwhgIIFVFFjVhVCzVyYfwkBFCygehpyvcE5NTMjh2a6GEDBAqpnyxwshJp5LJcKARQsoIouy+JCqJmv5SkhgIIFVM+gXC6EmpmaoZkpBlCwgOrZP7sKoWb+nmuFAAoWUEXXpI8Qaua0vCAEULCA6lk2XxNCzUzJ4WkVAyhYQPV8ORsKoWb+kJuEAAoWUMUveQbn1NIJeVUIoGAB1fPxfEUINTMhXxACKFhAFTVmJSHUzC/zQyGAggVUT8/caHBODR2bkUIABQuonq1ykBBqZky+JARQsIAqujyLCaFmfpSfCgEFSwRA9QzOZUKooWPSJAQULIDqOTC7CKFmXs9JQkDBAqiiq9JbCDVzc/4qBBQsgOpZIY1CqJnWDBMCChZAFX0l6woBULAAitQlNxmcAyhYAMVay5lNgIIFULSvGZwDKFgAxeqVbxmcAyhYAMX6VA4QAqBgARTrG1lUCICCBVCkwblUCICCBVCsz2U7IQAKFkCxbjA4B1CwAIq1fM4SAqBgARTr+KwjBEDBAihS19ycrmIAFCyAIq2V44QAKFgAxTonKwoBULAAitQr1woBULAAirVD9hcCoGABFOtKg3MABQugWIvkYiEAChZAsQ7JtkIAFCyAYn3L4BxAwQIo1vI5UwiAggVQrBOzthAABQugSF1zQ7qIAVCwAIq0Xr4oBEDBAijW+VlBCICCBVAkg3MABQugcDtmXyEAChZAsa7OIkIAFCyAIi2Si4QAKFgAxfp8thYCoGABFKlTrktPMQAKFkCRVjY4B1CwAIp2ssE5gIIFUCyDcwAFC6Bw6+VoIQAKFkCxLjA4B1CwAIrV2+AcQMECKNqO2UsIgIIFUKyrMlAIgIIFUKQlcrEQAAULoFhD8ykhAAoWQJE65br0EAOgYAEUaZWcIQRAwQIo1qlZSwiAggVQJINzAAULoHAb5AtCABQsgGJdkGWEAChYAEXqm+uFAChYAMXaKXsKAVCwAIp1jcE5gIIFUKwlcoEQAAULoFhHGJwDKFgAxTI4B1CwAAq3Sk4TAqBgARTr1KwhBEDBAihS99zkSymgYAEUa4McKQRAwQIo1oVZWgiAggVQpH65TgiAggVQrF2yhxAABQugWNdmgBAABQugSEvmfCEAChZAsY7MpkIAFCyAYr+gftvgHEDBAijWqjlFCICCBVCs0/NRIQAKFkCRDM4BFCyAwm2Yw4UACpYIAIp1cZYSAihYABSpX64UAihYABRrz3xaCKBgAVCsbxqcA9UuWJ1kAFC4JXOeEKDKBaubDABq4AvZRAhQ4YLVKgSAGnx5zbfTIAaobMGSAUBNrJaThQCVLVh2sABq5IysLgRQsAAoUkOuj5cSQSULVsMsIQDUyuY5TAhQxYLVZ6oQAGrnEoNzoIoFq3eLEABqp3+uEAJUr2D1miQEgFraK7sLASpXsCYIAaC2vpn+QoBqFaye44QAUFtDco4QoFoFq2GkEABq7ZhsKASoUsHq87wQAGr+xTY3xuQMqNCf+Z7/FgJA7X0sJwkBqlOw+v9TCABt4SyDc6A6Bavx2d6G5QC0gYZcZ3AOVKVgJUtMEwNAW9gihwoBqlKwFh8vBoC2cUkWFwJUpGD9VwwAbWNgrhQCVKNgDXpMDABtZZ/sJgSoQsHqf78YANrO1ekrBCh/wVrk113kANBmljU4B6pQsE4fs8x0QQC0nWOzkRCg7AUrWX6EIADa8kvv9QbnQPkL1tKPCAKgLX08JwgByl6wBv9SEABtqzGrCQHKXbAG/rBBEgBtqiHXG5wD5S5YjRNWmSQKgLa1RQ4WApS5YCUrPC8KgLZ2WRYTApS5YC31W1EAtLVB+YYQoMwFa/GrvGAYoO3tl12FAOUtWI2vfWyCMADa3jXpIwQoa8FKVv6nMADa3rL5uhCgvAVrqR8IA6A9fCkbCgHKWrD63zaoVRwA7fGF+Lp0FQOUs2A1TvvkC+IAaA+fyPFCgHIWrOQjPxQHQPtozEeEAOUsWItd2s9NQoB20TM3GpwD5SxYjRPWe0kgAO1jyxwkBChjwUpWvl0gAO3lcoNzoJwFa4mL+rhJCNBOBudyIUAZC1bj2E0MfQZoNwdkFyFA+QpWsvqVIgFoPwbnQCkL1jeuXWmaUADay3JpFAKUr2Al6/1RKADt58tZVwhQvoK14mldpALQbrrkpnQTA5StYJ3/rw1HigWg/ayVLwkBylawkrWvEgtAe/paVhIClK1gLXLBRzzoDtCOeuVbBudA2QpW46xNfiYYgPb0qRwgBChXwUo+duxAJ7oDtKtvGJwDZStYJ43c/F+iAWhPg3OJEKBcBSv56AldZQPQrj6XbYUA5SpYF/xpqxeFA9C+vpXeQoAyFaxknWM7SwegXS2fs4QA5SpYF/1y8+HiAWhfx2cdIUCZClbyyeOdwgLQvrrm5ngmFkpVsC69fSNDcwDa2Vo5TghQpoKVbHSGgADa29ezvBCgTAXrsm9v/oaIANpX71wnBChTwUo2P9y9f4D2tkP2FwKUqWCde/enXhASQHu7MosKAcpTsJK1P9cgJYB2tkguFgKUqWBd9LftHxUTQHs7xOAcKFPBStY4oG+roADa23XpKQQoT8G64KldfyMogPa2ksE5UKaClayy9wrTRAXQ3k7M2kKA8hSsxkk7XCoqgPbWNTekixigLAUrue6MDUcLC6C9rZdjhQDlKVjJpod0kxZAuzsvKwgBylOwLv3lDo+LC6C99co1QoDyFKxk9Z0XmykwKJN/56k4haXj2Sn7CgHKU7AufnX3bwoMyuSHWSP9s2lOzV1pEkcHcnUWEQKUpWAlNx638UiRQblMzF9zUXbLolkjn8u38qQ9rQ5gkVwkBChPwUq23ru3zKCUZuap3JYj87EMya5pzL1pEUod+3y2EQKUp2Cd86dd7hUalNsbuTtfy7bpm0/mS/luXhJJHeqUbxqcA3Ws64f9P6y+x0dGP98gOCi/GXk4DydJlsym2STrZoM4rqV+rJwzc4YYoE51/rD/h8ZJu3yls9ygUl7PHflyNsvgbJuz85uMF0ldOCkfFwKUpWAl37hul0cFB1U0Mffm69kxA7KSB+LrQLd82+AcKE/BStbZdvnpooMqG/bWA/EDsm0ac2+miKRdrJdjhADlKViNoz97vNuEQDIh9+Zr2Tb9s0aOzHfzokja2PkG50B5ClZy6TU7PSE84G0z8lS+lYOzYoZk11yUv2SqUNpE71wrBChPwUo+ufVybhMC7/F67s6p2SyDsmm+lDsySiQ1tmP2FgKUp2A1jtztjE7yA+ZhSv6aq7J3Fs/qOTTfNvWwhq7KUkKAshSs5OpLdnlMgMD8tebp3JLDTT2socXzC4eOQp3pujD/5022eOaNZ3sIEfggJuav+WuSLlk162bTbJKPxj54MdbJDfmcGKCOLNSLAU8dv+uh3WUIfCimHtbCQTlWCFCWgpVc9sM9fytEYMG8PfVwYDbNSflZRohkYb4eZwshQFkKVrLqLuuOEyOwMFry11yaPfJFUSyEbvk/Z2JBeQpW44ztduvrxUFAAQaIYKEMzk887A5lKVjJBX/e60ZBUnVTc19OEcNCWloEC2md+HIMpSlYyc1HbjNMlFTVM7kqO2dQtsklwlhIK4pgoR2Q44UAdaBrMb/N+hsPe3mYFxRSKZPzQO7KL/JfURRmTREU4OL8J78WA7SzgmY2nz9i7885EItqmJWHc1G2zaBsm6vUqwI1ZA0hFKBLvpeVxADlKFjJhT/e62fipNyG55bsm8XyyZyaezNNIAX7eLoJoRCDcmd6iwHaVdfifquV9txo+ANLiJTyacmf89v8Nk+Ioqa2FkGBZfWW7GP6I5SjYDXOOnPjl559ratQKY9huTf35jeZKIo2sL0ICrRXnkqjGKDddC7yNzv3xc8er19RBk35SQ7PclkpR+YO9apN9M3GQijUWdlbCNBuCu5DV1293w4/3EmsdFQz82juzb35U6YLo43tES9ELlanfCf/zUOCgDIUrGTVXTd/5f4hgqWjGZH7c1d+mbGiaCcHiaBwPfOzrJ9XBQFlKFiNs47d4KVhL3kxEB1Ec+7Pb/PbPCWKdrVUthJCDSyZO7NlpggC2lzn4n/Lq1/99AGmYVH/nszl2T6Ds0OuUK/a3aHpIoSaWC/fr8UXeqDtC1Zy5R0HXC9a6tfwXJlP5GM5Ib9LszjqQO8cK4Sa+XQuEwKUo2Al3z5q+2eFSz16NYdk2Xw5j4mijhyRRYVQQ1/OcUKAchSsZO0NV7M1QJ2Zma9n1dyaWaKoKw05QQg1dnl2F8K7DDAWm45ZsC5s2n6H/o4Rpo68nm1ytsd969BxWUoINdYlP8hGYnhH35yRYTlFEHTEgpVcef8+F3SSMHXisayTP4qhDi2Ts4TQBnrll1lTDEl65cQMy7kZKAo6asFKvnXG7s64o07q1TZ5Qwx16ar0EUKbGJh7s0rFM+ieI/JcLskiPh3o2AUrWWbzTzQJmfb2dLbOaDHUpZ3zaSG0mcXy6yxZ2avvliPyfG6Ik7ApRcG6euo2Wy7miWLa1YTskTFiqEuL5gYhtKkV89sMruB1d8nBeSY3ZBmfApSlYCWXPr7PVwyApv205uA8LYY6/fJzq8fb29ya+X3FDsXokSPzdL6TFSw+5SpYydVX7fUrQdNebsvPhFCnzsmOQmgHH8/9lblR2DfH5flcn49YdspYsJJVd930dVHTHsbkRCHUqQNzmhDayWq5rwIVa6lcmuG50i4pZS5YjbO22Gi56cKm7Z2RUUKoSzvlpjjGpf2snj9k+VJf380ZlhPS11JT7oKVnPeSAdC0vf/mZiHUpU/lJ+kuhna1ah7IuqW8so3zszyRz/sMoxoFK7nyjn1vFTdt67zYOK1Hu+Tu+AtX+1sif8zOpbqiHjkwf8tfs3vbfWuD9i9YyS2HbPecwGk7o/JdIdShz+VO9apO9MnP8oWSXMtHcnFeyW0GAlHFgpVsvP5HDYKjzdyaaUKoM11yYW5NN0HUja65Lremdwf/NrZNbs/TOcn57FS3YDWO22W3fgZA00Y8f1VvFs+vjdetQ5/L37NaB/3Yh+SsvJR7sle6WEiqXLCSi+/b1wBo2sQT+Y8Q6spu+Xe2FUNd+lj+kYM62MfcJTvmJ3kpX8vSFhAFKzEAmrZylwjqyGL5Tn5esfPDO5Y++W5+meU6yEe7Vi7Lq/lV9ow5IShYs/nEFuuMFzy1drcI6kSXHJWnc7Ag6t5OeSJfrvNbbcvn5DyeR3N8lrBgKFjv1tjyqc0NgKa2WvJPIdSBTtkz/843M1AUHUKfXJF/1OkAo2VzQh7MsFyUNS0UCta8XPr43sfb2KWW/uUVhO2ua/bKP/KTrC6KDmXt/Cp/zdZ19BGtmdPy9/w3l2Z9p/+jYL2fa6787K+FT+38QwTtalBOzPO5vaQnhZffxrk3f8xn2vlAjR7ZLlflxTye87OBakUH/EtmO1ltl81fuX+IBaA2nGnbXrpkqxyUz6aXKDq4LbJF3situTEvtPn7XjHbZJvsYJIgCtaCaJx1xsYvPfeSEwepiWEiaHMDsn12yU4ZJIrSWCKn5KT8LXfll3my5u+tW9bNxtksm3i9KQrWwjnvpeMO/NaPW6wBNfCSCNpMv2ySTbJ5NvKS+VLqnE2zaS7Ki7k79+cfhf/Z6pxVsk7WySeznn1PFKyiXHX753e6xau3qQEngdT6m+4yWSNrZs18PB91hnYlrJBjc2ySkflH/pknMizDMm6Bv/Esn9WyWlbN6vm4G4EoWLVwyyHbbfy7lS0DRZsogoXWN13TJf2SdM/ADMqgDMygLJPls1yWSXcBVdRi2Tk7v/XzsRmW/2ZUxr7zoznJxMxIMjnT3vkc6p1BGZRBWTxLZdkslyWVchSs2ltng5eGP9PTQlCs6SJ4HwPSP/3e+WdABsz2Vv8MSP/2eokxHcigDMonxQD1WbAubDp51+vvmeAVuBSqIc2Vvv4eGfjWj56z/fx/by3meSmAches5OL7Dr/w26e1WgsK1GuBnw7pCOXxzV2mgXPsOfV/a0+qX/qnt08AAAUrufH0T2/zs/UsBsUZktc66Efe4117Tu/egxqUHpYXQMH6YD6x+ctv/Ku/5aAoK9bpLMIe87ltNzADs4iHxwEUrOI0tpy4+auPjPRULQX5WG5v8/fZea637eZ8dBwABatNXfr4ccd/8xszrAiF2KIGv2ePed62e/PtJbzuDoB6K1jJVVfut8MPd7AkFGGDDPhQj7n3emefaeA7j4rP/uh4f08+AdAxC1ay6s4GQFOMhhyUq995q8c89pze/vngNIgMgLIWrMZZZ2z83+deNgCaAnw1e71znAEAtK06e2jkvJf22t+x7hRh0WyWj2d59QoABSu57Cf7fteyAAAKVqFuOXi75ywMAKBgFWrj9T86xdIAAApWgRrH7bJbP8MJAQAFq0gX33fAeZ2sDgCgYBXpuq/u/k/LAwAdjVtQdV2wkk9sts54CwQAHYuxd3VesBpbdth08VmWCAA6kpkiqO+ClZz/xN4ndLVGAKBgKVhFuvobe/3WIgGAgqVgFWrVnTZ5wzIBQEfh6Z4OUbAaZ2254XLTLRQAdAwtIugIBSs576W9DzAAGgA6BsNYOkjBSi65wwBoAFCwFKyCGQANAB3DZBF0nIKVbLz+6s2WCwDqnR2sDlWwGsftbAA0ANS5GZkqhI5UsJJL793/fAOgAaCejTaLsKMVrOT6M3d/2JIBQP0aJYKOV7CST2xqADQA1K/RIuiIBauxZefNDIAGgHplB6tDFqzknH/vdWIX6wYAdckOVgctWMk1V+z1OwsHAPXoJRF01IKVrLbjZq9ZOgCoP8NE0HELVuOszTde1gBoAKg7L4qg4xas5LyXPmsANADUHTtYHbpgJZffse/3LB8A1JNxaRJCxy5YyS0HGQANAPXk3yLo+AXLAGgAqC8GrpSiYDWO23VXA6ABQMFSsAp18X0GQAOAgqVgFez6M3ezmgBQByblWSGUpWAla2+6tgHQANDu/piZQihPwWps2XFzA6ABoL39WgRlKljJ+Y/ve2JXawkA7eq3IihXwUquvOKzBkADQDt6Ji8IoWwFK1ltx43esJwA0F7uFkEZC1bjrO03MgAaANrLLSIoY8FKGv9rADQAtI+/5UkhlLNgJZffsc/3LSkAtL2bRFDegpV858BtPGEHAG1sQm4XQpkLVrL1egZAA0DbujKThFDugnVa0+67GQANAG2nKVcIoewFK7nw3gMuMAAaANrK+WkSQvkLVnLdGQZAA0DbeC3XCqEaBcsAaABoK1+Kh58rU7AaW7bZclEDoAGgxn6SnwihOgUrueTR/U/sYn0BoIZeyReEUK2ClVx5xV73WGAAqJWp+WzGiKFqBStZbYfNXrfEAFALrTksD4mhigWrcdYWmywzwyIDQPFOyPeEUM2ClZz74l77GwANAEU7w+GiVS5YBkADQNFm5KicL4ZqFywDoAGgSOOya64Xg4JlADQAFOXhfDK/EYOClSSnNe20e18DoAFgoUzL17Jx3BZSsN5x2T17X1y1AdAOsgegSL/P2mnMNEEoWLO76dRd/1WtpXVXFICi/Du7ZOs8JQgF671W2vQTE6q0tC0+uwEowJ+za9bKLwWhYM3dFc1bbrFIhe6bKVgALJyxuSofz+a5Ox5kVrDm4xuP7nNSdQZAK1gALKiR+XZ2zJL5Uv4tjAXStVqXe+3l++34w20ULACYm1F5KH/MvXnMnpWC9eHM2GGj4Q8srmABwJum5Pk8nafyVP6ZF8WhYC2YO2aeucmrT79Sgeue6LMbgHdMyoRMyPhMyLiMS1NGZUxG55W8kjHCUbCKcO4LJx5w7Y/Lf4jBG5mZLj7DASqhOU1pSstb/377x//eHuP8qrd0ma5g1cyltx+y+3f2L/tVTs+oLOFPEkBp6tN7K9Tbb43KDCF9QJ3bqGl2rWa83zlgu/V/95GyX+WrChZAh6pPc9+DGmE2R4G6KFi1tfEGr7z6n57lvsbh+aQ/SQDtXJ7mfdvu7bdRsEqkcezJuw//7YRSDyh81Z8jgBrXJ08+dTSd26jRdq1uxBffM/SSm08u8zkfr/hzBLDAZmZ8xmX8W6+8e/OfptnempBxQuqAukxVsGruplN23/bna5f3+h7z5whgnjz5VE2dFay2sMUmr7zxr35lvbp/+nMEVLY8efKJubOD1SaObz5j65cfHF3SiYyj82qW9mcJKJ1xc9y2m9ttvJlCYh46eQarbZz3zy+eeN3lZf2j+LCCBXQ4znyilrqNUrDayDVX7LPTj0s6APqR7G6BgTqtT558oj10f1nBajOzSjsA+gGLC7ShSbO9vm7ut/GmCol21nmYgtVm7ph55kbDn325hFncn+b0tMBAIZz5RBlMfbZt3k8nUb/pi/vf+P0y/s3qt9nO4gLvy5lPVEP3TGuj5qNgvePzP7hlv/Jd1VH5pqUFPPkESZIlZr7RRverFKzZbPf871Yq2zUtmtfcB4bSlydnPsEHs2rzM73a5j353jubNTd88ZXnepTrmkbl924SQof23ofF37xl58wn+PD6Tmmr96Rgzeay0Sftcd2vJpVsV+9GBQvq1sx5VCZPPkFt9JnUVu/JLcJ3OfTiW04q1wDobnk5S1hYaAdT51KZxmf8bHtSk4UEbWrXh+7aoG3ekx2sd7n55N22+UWpBkBPz1U538JC4Tz5BB1P/xfa6j0pWO+x5SavlmwA9LU5OQMsLHzI+uTMJyifPk8qWO3m+Oavbzn8nyNKNAB6Qi62hwVzqU+m3UHVNPyzrd6TZ7Dm6riTr72oTK/L6Zmns6xlpSJa3npg3JNPwJy65Oj+V09QsNrVvvf+aOsyXc8eudOiUgqT5lqZZj/AwLQ7YO5WmPZiQ1u9L7cI5+Ez2782/P4SDYD+aX6Sz1pW6p4nn4DaWWr0i232vhSsedh75qkbD3vm1RLlc3Q2ylIWlnY0+5lP4+dxGw+gdhYd1nbvS8GapwuHHT/02lvLc7NhVPbNHyw4NePJJ6DeDXq47d6XZ7Dm65AffmffMl3PYbnRorJAnPkEdHxf2uLK+xWsOrH1C/etWKbruSCnWlTeY+4Pi89+G8+0O6CjG9ja1CVtNqzFHaP3seMGr73ynxINgD4trTnNslaMM58AkpXHPNSGs/AUrPdx4uhTPvPKL8s0APr0tOZ0C1sa837y6e39J08+ASTJ0k8+1IbvTcF6Xxf9+thLrynVAOgz8nxuSDdL2wF48gmgKIv/oi3fm2ewPpDdH/n5J8p1RevlR1nRwrZ7fXLmE0Db6J4TFrlgjIJVZxp7/fT1x/qV65oG5uocYGlr5t1nPo3PBGc+AbSbT0x4tH9bvj8F6wM6Y/3rHxjTuWxXtWOuzkoWdwG0zKMyefIJoD7t9fs72nQEnoL1gR194g2XlO+l6t1zdM7IIpZ3DpPmWplMuwPouI7b76ofKVh1at/7fvSpMl5X7xye47NMZdZx3BxnPM3tNp4znwDKZcmZR3ZvnKVg1anGrr977W+LlvPaumT7HJTd07ODX4cnnwB4rx2f/PXH2vY9OqbhwxSsGadu+NIzw0uZ2cz8Kr9K/3w2B2STdK/Tj3L+Tz6NzwRPPgEwFyvc1Nbv0Q7Wh3TqAVd+r7nk19gra2fTbJPN27hoOfMJgFpYfOZRvRrb+NwbBetDO/iHt+5bjSvtm3WyWlbPR7Nqll3o382TTwC0j93++Yv12vp9KlgLYNsX71m+atfcN8tm0SyRRbNoFsug9Em3JL3TPUmXzMyMTMysjE/SlOmefAKgjnxp3yt/rGB1AJcuclOpBkADQHmtOfHf7XBUeGfBf3gnjt51t76tcgCA+rfeD9vjvXYR/IL467DPD3x4QzkAQH0b1Lr5dn9ph9dIuUW4wHZ79BdrSQEA6tln//STLdvj/bpFuMDW2XjtCVIAgPrVOyse2T7vWcFaYI1T9thysVlyAIB6tc3DFz+jYHU4Zz2yz+keYgOA+tQ7axzWXu/bM1gLae/7bv+UFACg/uz1pzu2bK/3bQdrIX12u81HSAEA6s0is1ber/3eu4K1kPaeuflmS82QAwDUl11vO/91BasDO/e5fQ5vEAMA1JG1xy93aHu+f89oF+CBRw9a/dGPyQEA6kP37Lf3+c+050fgIfeCbP3ifctLAQDqwd6/v33r9v0I3CIsyGYbrDxVCgDQ/j4x4aM7t/fHoGAVpHHkHrsaAA0A7a1/6/Y7N7a090fhGazCGAANAO2tUw6+7Mqb6uHjoEC7PnqXAdAA0G72uv+OLerh43CLsFDrGgANAO1ms9fX2Lo+PhIFq1CNU3badrAB0ADQDtacvNnajXVy+LdnsAr25+GHT/nndp52B4C2tXLLnp847+V6+Wg8g1UD+/z+x1tJAQDazvLTD1rvnMfq5+Nxi7AGVt9uo1FSAIC28pFp+25ST/VKwaqJxhnbb7iMAdAA0CbWmLLXWhf+o74+Js9g1cQfm4a++sjuMwUBADW2wdidPnr+i/X2USlYNfL3Rw/86GNryAEAamnH/2y5+jlj6+/j8pB7DW393/uWkwIA1Eb3HPC9Ww6qz4/NM1g1tNn6BkADQG0sM+Pow+u1XtnBqrGTtrv+NxNlDAAF22bY+hufP6J+Pz7PYNXU3174/OCHN5ADABRn8ZkHXXr7rn+eXM8fo92VmjMAGgCKKy5bD9twu3NfqPeP0zNYNbfupmtNkgIALLyPT/zS4feuVP/1yg5Wmzhj/esfGKPKAsBCGDJzh5uWPapxVsf4aD2D1Qb+PPzw6f/Y2gBoAFgwS83Y445tNr3i//7YYb6Z2sFqI/v84cdbSgEAPqylZ2x510cObRzXsT7qrhaubay+7UavPbCoHADgg/vEhPVvGnJ6Y0vH+8jtYLWZxlVufGq4W7IA8AEMaN3kyTXOuPgXHfXjV7Da0PGHXHuLo90BYH66ZN2xH/vJsmc0ju7IV6FgtalDbv/OXlIAgLlpyLojV/3NUuee+1zHvxYFq40ZAA0A77borI+/tOLPBlx8yRtluSIFq401Lva9l59vkAMAJH1a1xy1wt8Wu+0bP03JTjNSsNrcmTtdebcB0ABU2aIzVnt1qYe6/nLMj39d0oeTfaNvB0dedcOxUgCgWnpmxclLv7ro4wP+3PvnF71c9qtVsNrFro/d9XEpAFBuvVuXnLbI+EVeHfBMv3/1+vOlD6VCQ00cNNou1t3kpdcf7yMHAMpSJ/rNGji9X3PfCX2beo1peK3X8z0en/HPb77yfJ6vaCJ2sNqJAdAAdBw90n9W3+ndpneZ1ndq7+aeE3uMaxjbfVTDyO6vdxs+ceQjbzz0UmZJScGqC8edeO0lM8UAQN0UqD5TezX3mtxzYo9xmTBzQu9xfZq6v95teNeXxz7zrSkyUrA6DAOgAWi7+jSf/af/VunpqLbhGax2ZAA0AMUVqPntP7VkhJjalB2sdnXmSrc+/YqSC8D71if7TwoWH8JXPv/Nmw2ABlCg5rX/NPXpK5plpGDxoR18+60GQAOUvj51ndZt+rv3n7q+/Pjrvxph/0nBoia2feGeFaUA0LEL1Nv7Tw1jZ43rMsX+U9V5/qcObLLRf19+zgBogDquT/Pef2pp9QA572UHqy6csvN1d02wFgBtrCF9Z/Wd0Xt6z5ZeU3pObpjQMKF7U/cx3UZ3G9nljS7DOw2/7CUZoWB1aMecfv15jh0FKNb77j+9ISMUrJI74Fff31EKAB9GQ+uA1nc//zRzfK8x/cZ2G9715clPXe1l2ihY7PT8r1aSAsDb/vf4eJeWbtN6T5lz/6nHi43jZES98pB7HVn/k6++8ngfOQBV8d79p+6jZjV1mvS//SePj9NR2cGqK19d69sPv95FDkAZzH//qXXYReNlhIJFGzlpv+u/P9GqAHWvZ/rO6jOj97ReU3tM6TWpYULD+IZx3cZ0H9VtZOfXu7+WVy9+VUYoWNSRL33lhstbxAC0M/tPoGCVzDHnX3+aIxuA2tanHq0N83n+qceTjdOkBApWyRzy/e/sLwVgYQrU/8a3dJvadZr9J1CwSLL3n27fXArAvOrT3PafGkZ2mdhlkv0nULCYj90e/cVaUoAq6px+rf1m9J7ea2qvlh6TGyb1nNCtqXtTw+huo7q/1vm1zsN7vdI4RUqgYLFAWjvt+8CPN5ADlI/9J1CwaFd73X/HZlKAjleg5vf8U48XGifICBQs2tVB99y2jRSg3upTw8zus969/zR9TCYOGG3/CVCwOoT9f/UDQ6ChjQvU/27fdW3uOtX+E6BgldDnv/O9g6eLAQqrT3Pbf+r+epcJnSd2fbnHvxtnSAlQsCrh2FNuvWCCtYIPWKDmvf808PlTJsoIULB4y8mf/sEdr3aVA+qT/SdAwaJAF67x478/0kcOlL9Azef5p+caJ8kIULAoVOMiD/7t1yvLgY6rT2vfWX1m9J7Wq6XHlJ6TGiZ2b+rR1G1M95HdR3Z5vfvw7q82jpQRoGDRDr5w6Q+PH2/VqFNz7j/1ntStuXWi/SdAwaIDOG2TX/768b5yoH3qU78ZDbO6Tnv380/9RzVMmDhyncf3niklAAWrg7qo7wN//MU6swRBobql36y+M3tP793Ss7nn5IaJDRN6jOs2pvuYbiO7vd75td6vLPnKkU4LAVCwyu30Q++65t895cAHZ/8JQMHifTX2eP4HP/v0JCvIbAVq9vHBXaZ0bfnf80+Dnz1psowAFCw+gFPXfeDnf1pKDtWpT32nd5/RZeqc+0/dhi8+ste4RZ+1/wSgYFGYLx39l/Mf7i+HchSo/+0/9Z7QrXnmOPtPAAoW7eaLJ//xrCd6y6He69O8959GPdPoVQsAChb1prHzyAv+cOx/PPbeLhrSd1a/mb2m9Zraa0rPKQ0TekzoPq776IYx3UZ2G9F9eKdXznmpk/oEoGDRUR1/4H9O/9PqUwRRsPfbfzr66U6tUgJAwSqxM5Z76Yr7d33ZYOgPXaDm9fzTCs8cqbMCoGDR2HX8ES8O/efHX1WzkvRv7Tuzz4xeU3u19JzSY1LDxB7juo3tPrphZPc3ur/RfXi/V48fKyMAFCw+oNZOJx743y889snnu5f5Knuk36w+M3pP7zW155Rek3pM6j6+e1OPsd1Gdx3R443ur3d55eyX3L4DQMGicKd/fPQhr39q2Mr/6dURn7R++/mnvtO6Te3U/O7nn9Z/Y/P/KlAAKFi0mzNXH33IqE1HrPjyIq90rZdO0jN9Z/WZ0Wd6z5aezb0m9ZjYML77uIax3UY2jOr2RtfXer5yxsvqEwAKFh1C4xLjdxy3RdPHxi0+dsCInqO6zKrZp9c7zz8195jSc3KPCd3HdR/bdXTPkd3f6PZ6j9cWf/nI8VYDAAWLMtatPlPXnbJW8ypTB08b3DKgpV9znyk9J/eY2XlKl2Ral5ZOyZRO05IkA9P6zn5Sv5mdW3tP79LaY2q3Wd1aGmZ0bu45qWF8Q1O3Md1H9xjZ7Y1urzW8av8JgGr6f16FJEA6IfzZAAAAJXRFWHRkYXRlOmNyZWF0ZQAyMDI0LTA3LTA4VDExOjMxOjA0KzAwOjAwq+bwKQAAACV0RVh0ZGF0ZTptb2RpZnkAMjAyNC0wNy0wOFQxMTozMTowNCswMDowMNq7SJUAAAAASUVORK5CYII=;" vertex="1" parent="102">
                    <mxGeometry x="22" y="42.50999999999999" width="41" height="41" as="geometry"/>
                </mxCell>
            </root>
        </mxGraphModel>
    </diagram>
</mxfile>